<svg width="212.436768" height="25.340820" viewBox="0 0 212.437 25.3408" fill="none" xmlns="http://www.w3.org/2000/svg" xmlns:xlink="http://www.w3.org/1999/xlink">
	<desc>
			Created with Pixso.
	</desc>
	<defs>
		<linearGradient id="paint_linear_8_528_0" x1="193.269394" y1="25.142090" x2="193.269394" y2="0.000000" gradientUnits="userSpaceOnUse">
			<stop stop-color="#E59703"/>
			<stop offset="0.231000" stop-color="#E59703"/>
			<stop offset="0.234000" stop-color="#FFFFFF"/>
			<stop offset="0.761000" stop-color="#FFFFFF"/>
			<stop offset="0.766000" stop-color="#5457BB"/>
			<stop offset="1.000000" stop-color="#5457BB"/>
		</linearGradient>
	</defs>
	<path id="Shape 327" d="M175.769 0L210.769 0C210.993 0.00439453 211.213 0.0524902 211.418 0.14209C211.622 0.231689 211.807 0.360352 211.962 0.521484C212.117 0.682617 212.239 0.872559 212.32 1.08057C212.401 1.28857 212.441 1.5105 212.436 1.73389L212.436 23.4082C212.441 23.6316 212.401 23.8535 212.32 24.0615C212.239 24.2695 212.117 24.4595 211.962 24.6206C211.807 24.7817 211.622 24.9104 211.418 25C211.213 25.0896 210.993 25.1377 210.769 25.1421L175.769 25.1421C175.546 25.1377 175.326 25.0896 175.121 25C174.917 24.9104 174.731 24.7817 174.576 24.6206C174.422 24.4595 174.3 24.2695 174.219 24.0615C174.137 23.8535 174.098 23.6316 174.102 23.4082L174.102 1.73389C174.098 1.5105 174.137 1.28857 174.219 1.08057C174.3 0.872559 174.422 0.682617 174.576 0.521484C174.731 0.360352 174.917 0.231689 175.121 0.14209C175.326 0.0524902 175.546 0.00439453 175.769 0Z" fill="url(#paint_linear_8_528_0)" fill-opacity="1.000000" fill-rule="nonzero"/>
	<path id="Shape 328" d="M204.074 17.2261L203.822 15.9312L201.088 15.9312L200.639 17.2261L198.397 17.2261L201.604 9.16113C201.679 8.96118 201.815 8.79004 201.994 8.67334C202.173 8.55664 202.384 8.50024 202.597 8.51221L204.326 8.51221L206.048 17.2271L204.074 17.2261ZM202.838 10.8818L201.708 14.1431L203.474 14.1431L202.838 10.8818ZM195.551 10.9961C195.551 11.948 198.551 12.1519 198.551 14.3408C198.551 16.4487 196.336 17.2241 194.869 17.2241C194.035 17.2378 193.208 17.0757 192.441 16.748L192.761 14.8579C193.641 15.5779 196.31 15.7832 196.31 14.6401C196.31 13.4971 193.335 13.47 193.335 11.2939C193.335 8.98193 195.869 8.50586 196.935 8.50586C197.595 8.52271 198.249 8.64697 198.869 8.87305L198.562 10.6821C197.644 10.1702 195.549 10.0481 195.549 11L195.551 10.9961ZM188.967 17.2261L190.311 8.51074L192.462 8.51074L191.118 17.2261L188.967 17.2261ZM183.81 17.2261L181.944 9.66406C182.274 9.86987 182.588 10.0994 182.885 10.3501C183.782 11.1177 184.465 12.1045 184.866 13.2148L185.109 14.5059L187.16 8.51221L189.475 8.51221L186.053 17.2271L183.81 17.2261ZM180.016 8.75L179.916 8.72021L180.016 8.75ZM179.796 8.68506L179.748 8.67188L179.796 8.68506ZM180.325 8.85498L180.197 8.81006L180.325 8.85498ZM181.816 9.58008C181.75 9.53882 181.683 9.49902 181.616 9.46094C181.68 9.50488 181.746 9.54297 181.814 9.58496L181.816 9.58008ZM181.302 9.29004C181.244 9.26001 181.184 9.22827 181.127 9.2002C181.182 9.23315 181.241 9.26489 181.3 9.29492L181.302 9.29004ZM180.767 9.0332L180.649 8.98193L180.767 9.0332Z" fill="#494CA3" fill-opacity="1.000000" fill-rule="nonzero"/>
	<path id="Shape 328" d="M184.863 13.219L184.139 9.30103C184.101 9.06494 183.974 8.85205 183.785 8.7063C183.595 8.5603 183.357 8.49268 183.119 8.51636L179.729 8.51636L179.689 8.66333C180.866 8.98071 181.957 9.55811 182.881 10.3533C183.779 11.1211 184.462 12.1082 184.863 13.219Z" fill="#FFC000" fill-opacity="1.000000" fill-rule="nonzero"/>
	<path id="Shape 327" d="M117.717 0.161133L152.451 0.161133C152.9 0.173096 153.326 0.362061 153.636 0.687012C153.946 1.01196 154.115 1.44604 154.105 1.89502L154.105 23.5679C154.115 24.0168 153.946 24.4509 153.636 24.7759C153.326 25.1008 152.9 25.2898 152.451 25.3018L117.717 25.3018C117.268 25.2898 116.842 25.1008 116.532 24.7759C116.222 24.4509 116.053 24.0168 116.062 23.5679L116.062 1.896C116.053 1.44702 116.222 1.0127 116.532 0.6875C116.842 0.362305 117.268 0.173096 117.717 0.161133Z" fill="#F1F1F1" fill-opacity="1.000000" fill-rule="nonzero"/>
	<path id="Shape 327 copy" d="M116.475 24.7109C116.209 24.3901 116.064 23.9863 116.066 23.5698L116.066 1.896C116.056 1.44702 116.225 1.0127 116.535 0.6875C116.844 0.362305 117.271 0.173096 117.719 0.161133L152.454 0.161133C152.875 0.162109 153.28 0.328613 153.58 0.625L116.479 24.7109L116.475 24.7109Z" fill="#FFFFFF" fill-opacity="0.730000" fill-rule="nonzero"/>
	<path id="Shape 335" d="M130.71 18.126L132.01 15.7759L131.286 10.1318L133.057 10.1318L133.344 13.4722L135.076 10.1318L136.905 10.1318L132.696 18.126L130.71 18.126ZM125.157 13.9102C125.43 12.5361 126.757 12.1001 128.719 12.1001C128.836 11.4893 128.448 11.3359 127.785 11.3589C127.202 11.3872 126.628 11.5205 126.092 11.752L126.246 10.3789C126.89 10.1787 127.558 10.0615 128.231 10.0298C129.458 10.0078 130.82 10.3992 130.51 11.9922L129.75 15.7422L127.979 15.7422L128.095 15.1738C127.89 15.386 127.644 15.5554 127.372 15.6714C127.101 15.7876 126.809 15.8481 126.513 15.8501C125.674 15.8462 124.927 15.2998 125.158 13.9058L125.157 13.9102ZM126.969 13.8228C126.913 13.9019 126.881 13.9954 126.877 14.0918C126.874 14.1885 126.898 14.2842 126.947 14.3672C126.997 14.4502 127.069 14.5173 127.156 14.5601C127.242 14.6028 127.339 14.6194 127.435 14.6079C127.655 14.6177 127.87 14.5481 128.042 14.4116C128.213 14.2754 128.33 14.0818 128.37 13.8662C128.394 13.6978 128.427 13.5308 128.47 13.3662L128.022 13.3662C127.823 13.3479 127.622 13.3794 127.438 13.4585C127.254 13.5376 127.092 13.6614 126.969 13.8188L126.969 13.8228ZM119.057 15.7422L120.521 8.56982L123.828 8.56982C124.123 8.56738 124.414 8.6355 124.677 8.76855C124.94 8.90186 125.168 9.09595 125.34 9.33496C125.513 9.57422 125.625 9.85107 125.669 10.1426C125.712 10.4343 125.685 10.7319 125.589 11.0107C125.494 11.6667 125.166 12.2661 124.663 12.6987C124.161 13.1316 123.52 13.3689 122.857 13.3662L121.474 13.3662L120.999 15.7422L119.057 15.7422ZM121.75 11.9922L122.66 11.9922C122.927 11.9709 123.179 11.8635 123.379 11.6865C123.579 11.5098 123.716 11.2725 123.769 11.0107C123.811 10.9031 123.827 10.7874 123.814 10.6724C123.802 10.5576 123.762 10.4473 123.698 10.3511C123.634 10.2549 123.548 10.176 123.446 10.1201C123.345 10.0645 123.232 10.0334 123.116 10.0308L122.166 10.0308L121.75 11.9922Z" fill="#3284AE" fill-opacity="1.000000" fill-rule="nonzero"/>
	<path id="Shape 335" d="M142.374 13.9058C142.65 12.5317 143.991 12.0972 145.98 12.0972C146.118 11.4851 145.724 11.334 145.054 11.356C144.458 11.3867 143.872 11.5193 143.321 11.748L143.478 10.375C144.138 10.1772 144.82 10.0603 145.508 10.0269C146.749 10.0049 148.107 10.3958 147.792 11.9878L147.024 15.7368L145.251 15.7368L145.369 15.1709C144.94 15.6001 144.359 15.8433 143.751 15.8472C142.893 15.8462 142.137 15.3008 142.374 13.9058ZM144.207 13.8188C144.154 13.9004 144.124 13.9961 144.123 14.0938C144.122 14.1914 144.149 14.2874 144.201 14.3701C144.253 14.4529 144.328 14.519 144.416 14.5605C144.505 14.6021 144.604 14.6172 144.7 14.604C144.918 14.6138 145.132 14.5437 145.302 14.4077C145.473 14.2717 145.588 14.0784 145.626 13.8638C145.665 13.6887 145.686 13.5359 145.726 13.3638L145.293 13.3638C145.088 13.343 144.882 13.3738 144.691 13.4531C144.501 13.5325 144.334 13.6577 144.204 13.8179L144.207 13.8188ZM147.844 15.7368L149.309 8.54297L151.129 8.54297L149.644 15.7368L147.844 15.7368ZM136.274 15.7368L137.737 8.56592L141.036 8.56592C141.33 8.56519 141.62 8.63452 141.882 8.76807C142.144 8.90161 142.37 9.09595 142.542 9.33447C142.714 9.573 142.826 9.84888 142.87 10.1396C142.914 10.4304 142.887 10.7273 142.793 11.0059C142.698 11.6641 142.367 12.2651 141.863 12.6982C141.358 13.1313 140.713 13.3667 140.048 13.3608L138.685 13.3608L138.191 15.7358L136.274 15.7368ZM138.961 11.9878L139.849 11.9878C140.118 11.967 140.372 11.8608 140.575 11.6841C140.778 11.5073 140.919 11.2698 140.976 11.0068C141.016 10.8977 141.029 10.7808 141.015 10.6655C141 10.5503 140.958 10.4402 140.893 10.3442C140.827 10.2483 140.74 10.1699 140.637 10.1147C140.535 10.0596 140.422 10.0293 140.305 10.0269L139.357 10.0269L138.961 11.9878Z" fill="#3CA9C7" fill-opacity="1.000000" fill-rule="nonzero"/>
	<path id="Shape 327" d="M59.5332 0L94.5061 0C94.957 0.00927734 95.3855 0.196777 95.6978 0.521973C96.01 0.847168 96.1804 1.2832 96.1711 1.73389L96.1711 23.4082C96.1804 23.8589 96.01 24.2944 95.6978 24.6196C95.3855 24.9448 94.957 25.1328 94.5061 25.1421L59.5332 25.1421C59.0825 25.1328 58.6538 24.9448 58.3416 24.6196C58.0293 24.2944 57.8591 23.8589 57.8682 23.4082L57.8682 1.73389C57.8591 1.2832 58.0293 0.847168 58.3416 0.521973C58.6538 0.196777 59.0825 0.00927734 59.5332 0Z" fill="#5870BE" fill-opacity="1.000000" fill-rule="nonzero"/>
	<path id="Shape 329" d="M74.6233 12.5667C74.6238 10.791 75.1506 9.05518 76.1375 7.57886C77.1243 6.10278 78.5266 4.95215 80.1672 4.27271C81.8081 3.59351 83.6133 3.41602 85.3547 3.76245C87.0964 4.10913 88.6963 4.96436 89.9519 6.21997C91.2073 7.47583 92.0625 9.07568 92.4089 10.8171C92.7551 12.5588 92.5774 14.3643 91.8977 16.0046C91.2183 17.6453 90.0676 19.0474 88.5913 20.0339C87.115 21.0208 85.3789 21.5476 83.6033 21.5476C82.4238 21.5476 81.2561 21.3154 80.1665 20.864C79.0769 20.4128 78.0869 19.7512 77.2532 18.9172C76.4192 18.0833 75.7578 17.0935 75.3066 16.0037C74.8552 14.9141 74.623 13.7461 74.6233 12.5667Z" fill="#FFAF38" fill-opacity="1.000000" fill-rule="nonzero"/>
	<path id="Shape 329" d="M69.8442 21.5459C68.3132 21.5457 66.8076 21.1541 65.4705 20.4082C64.1333 19.6624 63.009 18.5869 62.2046 17.2842C61.4001 15.9814 60.9421 14.4949 60.874 12.9653C60.8062 11.4358 61.1301 9.91382 61.8157 8.54492C62.5012 7.17578 63.5256 6.00513 64.791 5.14355C66.0566 4.28174 67.5215 3.75781 69.0464 3.62158C70.5715 3.48535 72.106 3.74121 73.5042 4.36523C74.9023 4.98901 76.1179 5.96021 77.0352 7.18604L75.8352 7.18604L75.8352 7.78613L77.4482 7.78613C77.5691 7.97705 77.6833 8.17505 77.7893 8.375L75.2351 8.375L75.2351 8.9751L78.0781 8.9751C78.1663 9.17505 78.2454 9.37524 78.3152 9.5752L74.6353 9.5752L74.6353 10.1748L78.5032 10.1748C78.9895 11.9487 78.9224 13.8291 78.3113 15.564L74.6353 15.564L74.6353 16.1641L78.0742 16.1641C77.9841 16.3711 77.8872 16.5637 77.7893 16.7549L75.2351 16.7549L75.2351 17.355L77.4412 17.355C77.3083 17.5649 77.1692 17.7661 77.0283 17.9551L75.8352 17.9551L75.8352 18.5552L76.5352 18.5552C75.6924 19.4956 74.6611 20.2478 73.5083 20.7632C72.3555 21.2786 71.1069 21.5449 69.8442 21.5459Z" fill="#E63737" fill-opacity="1.000000" fill-rule="nonzero"/>
	<path id="MasterCard" d="M60.0466 13.8023L60.5933 9.54232L61.4418 9.65122L62.063 12.7969C62.12 13.0897 62.1608 13.3086 62.1855 13.4536C62.2538 13.3048 62.3586 13.0869 62.4998 12.7998L63.9002 9.96671L64.6586 10.064L64.1119 14.324L63.5685 14.2543L64.0261 10.6888L62.3306 14.0954L61.8221 14.0302L61.0554 10.2455L60.59 13.872L60.0466 13.8023ZM67.0172 14.3099C66.8023 14.4497 66.6005 14.542 66.4116 14.5867C66.2247 14.6316 66.0285 14.6409 65.8232 14.6145C65.4842 14.571 65.2342 14.4553 65.0732 14.2672C64.9125 14.0772 64.8487 13.8534 64.8817 13.5958C64.9011 13.4447 64.9527 13.3115 65.0364 13.1962C65.1223 13.0792 65.2253 12.9901 65.3454 12.9287C65.4675 12.8675 65.6007 12.8266 65.7452 12.8057C65.8513 12.7918 66.0097 12.7855 66.2202 12.7869C66.649 12.7907 66.9676 12.7706 67.1761 12.7265C67.1872 12.655 67.194 12.6096 67.1965 12.5903C67.2239 12.3772 67.1937 12.2207 67.1061 12.1208C66.9876 11.9855 66.7966 11.9009 66.5332 11.8671C66.2872 11.8356 66.0995 11.8558 65.9701 11.9278C65.8429 11.9981 65.7372 12.1391 65.6529 12.3508L65.1505 12.2154C65.225 12.0025 65.3242 11.836 65.4479 11.716C65.5718 11.5941 65.7391 11.5102 65.9498 11.4644C66.1607 11.4166 66.3989 11.4098 66.6643 11.4438C66.9278 11.4777 67.1378 11.5361 67.2946 11.6193C67.4513 11.7024 67.5623 11.7964 67.6276 11.9012C67.6931 12.0042 67.7322 12.1293 67.7448 12.2766C67.7508 12.368 67.7389 12.5299 67.7091 12.7624L67.6196 13.4598C67.5572 13.946 67.5283 14.2554 67.5329 14.3879C67.5398 14.5188 67.5686 14.6475 67.6192 14.7741L67.073 14.704C67.0326 14.5886 67.014 14.4572 67.0172 14.3099ZM67.1235 13.1362C66.9237 13.1893 66.6305 13.2186 66.2438 13.2241C66.0248 13.2275 65.8683 13.2429 65.7742 13.2702C65.6801 13.2975 65.604 13.3458 65.5459 13.4152C65.488 13.4826 65.4532 13.5618 65.4415 13.6529C65.4236 13.7923 65.461 13.9153 65.5537 14.0217C65.6483 14.1284 65.7973 14.1947 66.0007 14.2208C66.2022 14.2467 66.387 14.2261 66.5551 14.1591C66.7234 14.0901 66.8543 13.9838 66.9475 13.8402C67.0189 13.7292 67.0693 13.5585 67.0989 13.328L67.1235 13.1362ZM68.1762 13.9093L68.7039 13.8943C68.7064 14.1053 68.7664 14.2745 68.884 14.4018C69.0035 14.5294 69.1824 14.6085 69.4206 14.6391C69.6608 14.6699 69.8453 14.6443 69.974 14.5624C70.1029 14.4785 70.1758 14.3707 70.1927 14.239C70.2078 14.1208 70.1684 14.0212 70.0745 13.9402C70.0088 13.8845 69.8381 13.8026 69.5625 13.6944C69.1914 13.5483 68.9357 13.4308 68.7955 13.3419C68.6575 13.2513 68.5577 13.1391 68.4961 13.0051C68.4367 12.8695 68.4167 12.7262 68.4361 12.5751C68.4537 12.4375 68.501 12.3146 68.5779 12.2063C68.657 12.0964 68.7558 12.0096 68.8742 11.946C68.9633 11.8964 69.0802 11.8602 69.2249 11.8374C69.3718 11.813 69.5256 11.8111 69.6864 11.8317C69.9285 11.8628 70.1362 11.9249 70.3093 12.018C70.4844 12.1113 70.6079 12.2237 70.6796 12.3549C70.7516 12.4843 70.7913 12.6509 70.7986 12.8546L70.2782 12.8587C70.2754 12.6969 70.2235 12.5642 70.1226 12.4607C70.0236 12.3574 69.8724 12.2927 69.669 12.2666C69.4288 12.2358 69.2522 12.2535 69.1394 12.3197C69.0265 12.386 68.9632 12.4724 68.9495 12.5789C68.9408 12.6467 68.9543 12.7105 68.99 12.7702C69.0254 12.8319 69.0863 12.8869 69.1726 12.9354C69.2224 12.9615 69.3707 13.0258 69.6175 13.1284C69.9748 13.2747 70.222 13.3891 70.3591 13.4717C70.4984 13.5526 70.6019 13.6584 70.6698 13.7892C70.7377 13.92 70.7602 14.0745 70.7374 14.2527C70.715 14.4271 70.6425 14.5852 70.5199 14.727C70.3996 14.8671 70.238 14.9674 70.0353 15.0281C69.8328 15.0868 69.6105 15.1006 69.3683 15.0695C68.9673 15.018 68.6719 14.8954 68.4822 14.7017C68.2943 14.5083 68.1924 14.2441 68.1762 13.9093ZM72.4449 14.9179L72.4612 15.3896C72.3099 15.4017 72.1762 15.4003 72.06 15.3854C71.8701 15.361 71.7268 15.3121 71.6299 15.2386C71.533 15.1651 71.4694 15.0772 71.4392 14.9749C71.4093 14.8706 71.4145 14.6616 71.4547 14.3477L71.6826 12.5723L71.299 12.523L71.3512 12.1162L71.7348 12.1655L71.8329 11.4012L72.3933 11.1541L72.2549 12.2322L72.7809 12.2997L72.7287 12.7065L72.2027 12.639L71.9711 14.4436C71.952 14.5927 71.9484 14.6897 71.9604 14.7346C71.9743 14.7797 72 14.8175 72.0374 14.8479C72.0768 14.8785 72.1352 14.8988 72.2127 14.9088C72.2708 14.9162 72.3482 14.9193 72.4449 14.9179ZM75.1393 14.729L75.6712 14.8652C75.5454 15.1701 75.3561 15.3949 75.1032 15.5396C74.8503 15.6844 74.5446 15.7338 74.1862 15.6878C73.7349 15.6299 73.3943 15.4454 73.1644 15.1343C72.9368 14.8215 72.8551 14.4142 72.9195 13.9125C72.9861 13.3933 73.1715 13.0075 73.4756 12.7551C73.7798 12.5027 74.1449 12.4039 74.5711 12.4586C74.9838 12.5115 75.3028 12.6952 75.5283 13.0097C75.7538 13.3241 75.8338 13.7361 75.7684 14.2456C75.7645 14.2766 75.7575 14.323 75.7476 14.3847L73.4462 14.0894C73.4221 14.4309 73.4846 14.7028 73.6339 14.9051C73.7832 15.1074 73.9867 15.225 74.2444 15.2581C74.4361 15.2827 74.6063 15.2533 74.7548 15.17C74.9034 15.0867 75.0315 14.9397 75.1393 14.729ZM73.5304 13.663L75.2536 13.8842C75.2637 13.6216 75.2228 13.4185 75.131 13.2747C74.9902 13.0519 74.7872 12.9234 74.5218 12.8894C74.2815 12.8585 74.0688 12.913 73.8835 13.0526C73.7001 13.1925 73.5824 13.396 73.5304 13.663ZM76.2061 15.8761L76.6021 12.7901L77.0728 12.8505L77.0128 13.3183C77.161 13.1149 77.2899 12.9847 77.3996 12.9279C77.5113 12.8713 77.6281 12.8509 77.7501 12.8665C77.9264 12.8892 78.0984 12.9683 78.2661 13.1041L78.0237 13.5662C77.9055 13.4743 77.7825 13.4201 77.6546 13.4037C77.5403 13.389 77.4332 13.4107 77.3332 13.4687C77.2334 13.5249 77.1563 13.6115 77.1019 13.7285C77.02 13.9071 76.9648 14.1067 76.9365 14.3276L76.7291 15.9432L76.2061 15.8761ZM81.4917 15.0362L82.0372 15.251C81.8596 15.6988 81.6011 16.025 81.2618 16.2296C80.9246 16.4324 80.5342 16.5054 80.0906 16.4485C79.6315 16.3895 79.2695 16.2486 79.0047 16.0256C78.7421 15.8009 78.558 15.5015 78.4524 15.1276C78.3487 14.754 78.323 14.3637 78.3752 13.9569C78.4322 13.5133 78.566 13.1376 78.7768 12.8299C78.9898 12.5205 79.2632 12.3006 79.597 12.1702C79.9329 12.038 80.2888 11.9961 80.6646 12.0443C81.0908 12.099 81.4353 12.2535 81.698 12.5077C81.9608 12.762 82.1241 13.0931 82.1879 13.501L81.6161 13.5606C81.5571 13.2379 81.4427 12.9938 81.2729 12.8283C81.1032 12.6628 80.8759 12.5617 80.5911 12.5252C80.2637 12.4832 79.9795 12.5265 79.7386 12.655C79.4995 12.7839 79.3184 12.9752 79.1952 13.2292C79.0723 13.4812 78.9928 13.7477 78.9568 14.0286C78.9103 14.3909 78.9219 14.7143 78.9917 14.999C79.0637 15.2819 79.2025 15.5045 79.4082 15.6668C79.6138 15.829 79.8464 15.9268 80.106 15.9601C80.4218 16.0007 80.7008 15.9439 80.9431 15.7899C81.1853 15.6359 81.3682 15.3847 81.4917 15.0362ZM84.5569 16.5609C84.3421 16.7007 84.1402 16.7929 83.9514 16.8376C83.7644 16.8825 83.5683 16.8918 83.3629 16.8655C83.0239 16.822 82.7739 16.7062 82.613 16.5182C82.4523 16.3282 82.3884 16.1044 82.4215 15.8467C82.4409 15.6956 82.4924 15.5624 82.5761 15.4471C82.662 15.3302 82.7651 15.241 82.8852 15.1796C83.0072 15.1185 83.1405 15.0775 83.2849 15.0566C83.3911 15.0427 83.5494 15.0364 83.7599 15.0379C84.1887 15.0417 84.5074 15.0215 84.7159 14.9774C84.727 14.906 84.7338 14.8606 84.7363 14.8412C84.7636 14.6281 84.7335 14.4716 84.6459 14.3718C84.5274 14.2364 84.3364 14.1519 84.0729 14.1181C83.8269 14.0865 83.6392 14.1067 83.5098 14.1787C83.3827 14.249 83.2769 14.3901 83.1927 14.6017L82.6902 14.4664C82.7648 14.2534 82.8639 14.087 82.9876 13.967C83.1116 13.845 83.2789 13.7612 83.4896 13.7153C83.7005 13.6676 83.9386 13.6607 84.204 13.6948C84.4675 13.7286 84.6776 13.7871 84.8343 13.8702C84.991 13.9533 85.102 14.0473 85.1673 14.1522C85.2329 14.2551 85.272 14.3802 85.2846 14.5276C85.2906 14.6189 85.2786 14.7808 85.2488 15.0133L85.1593 15.7107C85.0969 16.197 85.068 16.5063 85.0727 16.6389C85.0795 16.7697 85.1083 16.8984 85.159 17.0251L84.6127 16.955C84.5724 16.8395 84.5538 16.7082 84.5569 16.5609ZM84.6633 15.3871C84.4635 15.4403 84.1702 15.4696 83.7836 15.4751C83.5646 15.4785 83.408 15.4938 83.3139 15.5211C83.2199 15.5485 83.1438 15.5968 83.0856 15.6661C83.0277 15.7335 82.993 15.8127 82.9813 15.9038C82.9634 16.0433 83.0008 16.1662 83.0934 16.2726C83.1881 16.3793 83.3371 16.4457 83.5405 16.4718C83.742 16.4976 83.9267 16.477 84.0948 16.41C84.2632 16.341 84.394 16.2347 84.4873 16.0912C84.5586 15.9802 84.6091 15.8094 84.6387 15.5789L84.6633 15.3871ZM85.8012 17.1075L86.1972 14.0215L86.668 14.0819L86.6079 14.5497C86.7561 14.3462 86.8851 14.2161 86.9948 14.1593C87.1064 14.1027 87.2232 14.0823 87.3453 14.0979C87.5216 14.1205 87.6936 14.1997 87.8612 14.3354L87.6188 14.7976C87.5006 14.7056 87.3776 14.6515 87.2498 14.635C87.1355 14.6204 87.0283 14.6421 86.9283 14.7001C86.8286 14.7562 86.7515 14.8428 86.6971 14.9599C86.6151 15.1384 86.5599 15.3381 86.5316 15.559L86.3242 17.1746L85.8012 17.1075ZM89.7909 17.6195L89.8409 17.2301C89.606 17.5111 89.2986 17.6272 88.9189 17.5785C88.6729 17.5469 88.455 17.45 88.2651 17.2878C88.0771 17.1259 87.9416 16.9165 87.8583 16.6596C87.7773 16.4011 87.757 16.114 87.7976 15.7982C87.8371 15.4902 87.9242 15.2178 88.059 14.9811C88.194 14.7424 88.3727 14.5694 88.5952 14.4621C88.8177 14.3548 89.0559 14.3174 89.3096 14.35C89.4956 14.3739 89.6562 14.4348 89.7913 14.5329C89.9266 14.6291 90.0317 14.7459 90.1066 14.8835L90.3028 13.355L90.8229 13.4218L90.2762 17.6818L89.7909 17.6195ZM88.3351 15.8672C88.2844 16.2624 88.3298 16.5685 88.4713 16.7856C88.6128 17.0026 88.7969 17.1257 89.0235 17.1548C89.2521 17.1841 89.4578 17.116 89.6405 16.9504C89.8254 16.7831 89.9425 16.5077 89.9917 16.1241C90.0459 15.7018 90.0043 15.3814 89.8669 15.1629C89.7296 14.9444 89.5417 14.8199 89.3035 14.7893C89.071 14.7595 88.8641 14.8294 88.6828 14.9991C88.5035 15.1691 88.3876 15.4585 88.3351 15.8672Z" fill="#FFFFFF" fill-opacity="1.000000" fill-rule="evenodd"/>
	<path id="Shape 327" d="M1.66626 0.197754L36.6484 0.197754C36.8716 0.202148 37.0918 0.250732 37.2964 0.340332C37.501 0.429932 37.6858 0.558594 37.8406 0.719727C37.9954 0.880859 38.1167 1.0708 38.198 1.27881C38.2793 1.48682 38.3188 1.70898 38.3142 1.93213L38.3142 23.6079C38.3232 24.0586 38.1526 24.4944 37.8401 24.8193C37.5278 25.1443 37.0991 25.3318 36.6484 25.3408L1.66626 25.3408C1.21558 25.3318 0.786865 25.1443 0.474365 24.8193C0.162109 24.4944 -0.00854492 24.0586 0.000244141 23.6079L0.000244141 1.93213C-0.00415039 1.70898 0.0354004 1.48682 0.116699 1.27881C0.197998 1.0708 0.319336 0.880859 0.474121 0.719727C0.628906 0.558594 0.813721 0.429932 1.01831 0.340332C1.2229 0.250732 1.44312 0.202148 1.66626 0.197754Z" fill="#353A40" fill-opacity="1.000000" fill-rule="nonzero"/>
	<path id="WESTERN UNION" d="M22.6892 16.7622C22.425 16.6277 22.2075 16.416 22.0654 16.1558C21.895 15.8369 21.8123 15.4792 21.8254 15.1182C21.8108 14.8718 21.845 14.6252 21.9265 14.3926C22.0078 14.1597 22.1345 13.9456 22.2996 13.7622C22.4746 13.5952 22.6824 13.4661 22.9094 13.3828C23.1367 13.2993 23.3787 13.2634 23.6204 13.2778C23.8638 13.262 24.1079 13.2964 24.3376 13.3784C24.5674 13.4604 24.7781 13.5884 24.9563 13.7549C25.1196 13.9348 25.2454 14.1455 25.3259 14.375C25.4062 14.6042 25.4402 14.8472 25.4255 15.0898C25.4402 15.4414 25.3716 15.7915 25.2253 16.1118C25.0933 16.3723 24.8875 16.5884 24.6335 16.7329C24.3359 16.8901 24.0027 16.9668 23.6663 16.9551C23.3301 16.967 22.9956 16.9011 22.6892 16.7622ZM23.0955 14.3452C22.9663 14.5835 22.8989 14.8501 22.8989 15.1211C22.8989 15.3918 22.9663 15.6584 23.0955 15.897C23.1633 15.9707 23.2461 16.0293 23.3379 16.0698C23.4297 16.1101 23.5291 16.1313 23.6294 16.1313C23.7297 16.1313 23.8291 16.1101 23.9209 16.0698C24.0127 16.0293 24.0955 15.9707 24.1633 15.897C24.3149 15.6497 24.3816 15.3594 24.3533 15.0708C24.375 14.8101 24.3042 14.5505 24.1536 14.3369C24.0874 14.2603 24.0046 14.2 23.9119 14.1602C23.8191 14.1201 23.7185 14.1013 23.6174 14.106C23.5178 14.103 23.4192 14.123 23.3286 14.1646C23.238 14.2058 23.1582 14.2681 23.0955 14.3452ZM13.1833 16.9189C13.009 16.9016 12.8396 16.8521 12.6833 16.7729C12.5417 16.6956 12.4167 16.5911 12.3154 16.4658C12.2117 16.3467 12.1335 16.2078 12.0864 16.0571C12.0251 15.8628 11.9915 15.6606 11.9866 15.457L11.9866 13.3389L13.0574 13.3389L13.0574 15.5068C13.0525 15.5891 13.0642 15.6719 13.0916 15.75C13.1187 15.8279 13.1611 15.8994 13.2166 15.9609C13.3376 16.0652 13.4924 16.1226 13.6523 16.1226C13.8123 16.1226 13.967 16.0652 14.0884 15.9609C14.1436 15.8989 14.1858 15.8264 14.2131 15.748C14.2402 15.6694 14.2515 15.5867 14.2463 15.5039L14.2463 13.3359L15.3174 13.3359L15.3174 15.4541C15.3179 15.6582 15.2842 15.8611 15.2175 16.0542C15.1558 16.2378 15.0532 16.4048 14.9172 16.543C14.7976 16.6733 14.6504 16.7756 14.4866 16.8428C14.2451 16.9268 13.9907 16.9668 13.7354 16.9609C13.551 16.957 13.3672 16.9429 13.1843 16.918L13.1833 16.9189ZM28.3225 16.895L27.0222 14.9429L27.0222 16.895L26.0125 16.895L26.0125 13.3398L27.0125 13.3398L28.3215 15.3062L28.3215 13.3398L29.3333 13.3398L29.3333 16.895L28.3225 16.895ZM18.3445 16.895L17.0444 14.9429L17.0444 16.895L16.0344 16.895L16.0344 13.3398L17.0344 13.3398L18.3425 15.3062L18.3425 13.3398L19.3542 13.3398L19.3542 16.895L18.3445 16.895ZM20.1145 16.8857L20.1145 13.3369L21.1943 13.3369L21.1943 16.8857L20.1145 16.8857ZM11.9094 11.9048C11.678 11.6648 11.5405 11.3499 11.5222 11.0171L12.5444 10.9521C12.5552 11.0908 12.6011 11.2241 12.6785 11.3398C12.7341 11.4114 12.8064 11.4685 12.8889 11.5063C12.9714 11.5439 13.0618 11.5618 13.1523 11.5571C13.2803 11.5654 13.407 11.5256 13.5076 11.4458C13.5449 11.416 13.5754 11.3784 13.5964 11.3354C13.6177 11.2922 13.6289 11.2451 13.6296 11.1973C13.6301 11.1492 13.6199 11.1021 13.5999 11.0586C13.5798 11.0149 13.5503 10.9763 13.5134 10.9458C13.3472 10.8379 13.1594 10.7676 12.9634 10.7397C12.5979 10.6785 12.2527 10.5305 11.9563 10.3081C11.8589 10.2229 11.781 10.1169 11.7292 9.99854C11.6775 9.87988 11.6526 9.75146 11.6565 9.62207C11.6567 9.43823 11.7107 9.25854 11.8113 9.10498C11.9253 8.93335 12.0881 8.80029 12.2786 8.72217C12.551 8.61768 12.8418 8.57031 13.1335 8.58301C13.4902 8.55908 13.8457 8.64795 14.1494 8.83691C14.272 8.93384 14.3723 9.05591 14.4441 9.19482C14.5159 9.3335 14.5571 9.48584 14.5654 9.64209L13.5535 9.70312C13.54 9.57007 13.48 9.44629 13.3835 9.354C13.2812 9.27588 13.1545 9.2373 13.0264 9.24512C12.9258 9.23779 12.8257 9.26636 12.7444 9.32617C12.7144 9.3501 12.6902 9.38037 12.6738 9.41504C12.6575 9.44946 12.6492 9.4873 12.6494 9.52588C12.6501 9.55566 12.6577 9.58496 12.6714 9.61182C12.6851 9.63843 12.7046 9.66187 12.7283 9.68018C12.8376 9.74951 12.9609 9.79395 13.0894 9.81006C13.437 9.87427 13.7756 9.97974 14.0984 10.124C14.2803 10.2112 14.4338 10.3481 14.5413 10.519C14.6343 10.6782 14.6821 10.8596 14.6794 11.0439C14.6807 11.2678 14.6162 11.4868 14.4944 11.6748C14.3689 11.8684 14.1892 12.0208 13.9773 12.1128C13.7122 12.2197 13.4272 12.271 13.1414 12.2622C12.6997 12.3083 12.2576 12.1794 11.9094 11.9038L11.9094 11.9048ZM28.3235 12.1948L27.0234 10.2422L27.0234 12.1948L26.0134 12.1948L26.0134 8.64014L27.0134 8.64014L28.3225 10.6069L28.3225 8.64014L29.3342 8.64014L29.3342 12.1948L28.3235 12.1948ZM24.4485 12.1948L23.8743 11.1079C23.8281 11.0046 23.762 10.9119 23.6794 10.835C23.6025 10.7798 23.51 10.7507 23.4153 10.752L23.3206 10.752L23.3206 12.1948L22.2415 12.1948L22.2415 8.64014L24.0305 8.64014C24.2871 8.62988 24.5437 8.65918 24.7913 8.72705C24.9653 8.78369 25.115 8.89722 25.2166 9.0498C25.3276 9.2207 25.3838 9.42188 25.3774 9.62598C25.3818 9.80396 25.3394 9.98047 25.2544 10.1372C25.1719 10.2795 25.0552 10.3984 24.9143 10.4839C24.7969 10.5505 24.6697 10.5986 24.5374 10.626C24.6365 10.6553 24.731 10.699 24.8174 10.7559C24.8816 10.8113 24.939 10.8745 24.9885 10.9438C25.0454 11.0122 25.0959 11.0862 25.1394 11.1641L25.6594 12.1948L24.4485 12.1948ZM23.3215 10.0791L23.7744 10.0791C23.8704 10.072 23.9653 10.0557 24.0583 10.0308C24.1279 10.0164 24.1899 9.97705 24.2324 9.91992C24.2776 9.86035 24.3015 9.78735 24.3005 9.71289C24.3035 9.66333 24.2954 9.61401 24.2771 9.56836C24.2585 9.52246 24.2297 9.48096 24.1934 9.44775C24.0737 9.37402 23.9331 9.34229 23.7932 9.35693L23.3215 9.35693L23.3215 10.0791ZM18.7214 12.1948L18.7214 8.64014L21.5994 8.64014L21.5994 9.39893L19.7996 9.39893L19.7996 9.96387L21.4714 9.96387L21.4714 10.6899L19.7996 10.6899L19.7996 11.3901L21.6545 11.3901L21.6545 12.1948L18.7214 12.1948ZM16.0693 12.1948L16.0693 9.51807L14.9744 9.51807L14.9744 8.64014L18.2395 8.64014L18.2395 9.51807L17.1394 9.51807L17.1394 12.1948L16.0693 12.1948ZM8.20435 12.1948L8.20435 8.64014L11.0823 8.64014L11.0823 9.39893L9.28247 9.39893L9.28247 9.96387L10.9534 9.96387L10.9534 10.6899L9.27441 10.6899L9.27441 11.3901L11.1274 11.3901L11.1274 12.1948L8.20435 12.1948ZM6.03735 12.1948L5.42847 9.95605L4.82153 12.1948L3.76831 12.1948L2.99536 8.64014L4.01538 8.64014L4.38257 10.6299L4.92041 8.64014L5.93628 8.64014L6.47534 10.6279L6.84253 8.64014L7.85742 8.64014L7.09155 12.1948L6.03735 12.1948Z" fill="#ECD345" fill-opacity="1.000000" fill-rule="nonzero"/>
	<path id="Shape 338" d="M34.1245 16.957L34.1245 8.57715L35.3245 8.57715L35.3245 16.957L34.1245 16.957ZM31.1345 16.957L31.1345 8.57715L32.3345 8.57715L32.3345 16.957L31.1345 16.957Z" fill="#ECD345" fill-opacity="1.000000" fill-rule="nonzero"/>
</svg>
