<svg width="123.596680" height="15.144897" viewBox="0 0 123.597 15.1449" fill="none" xmlns="http://www.w3.org/2000/svg" xmlns:xlink="http://www.w3.org/1999/xlink">
	<desc>
			Created with Pixso.
	</desc>
	<defs/>
	<path id="star" d="M68.6958 5.89893L64.4443 9.4209L65.6951 15.1449L61.5642 11.6869L57.1672 14.9609L58.866 9.3009L54.8999 5.60095L60.0803 5.56091L62.0271 0L63.5303 5.63599L68.6958 5.89893Z" fill="#FFC600" fill-opacity="1.000000" fill-rule="nonzero"/>
	<path id="star copy 3" d="M41.2446 5.89893L36.9932 9.4209L38.2441 15.1449L34.113 11.6869L29.7161 14.9609L31.4148 9.3009L27.4487 5.60095L32.6292 5.56091L34.5759 0L36.0791 5.63599L41.2446 5.89893Z" fill="#FFC600" fill-opacity="1.000000" fill-rule="nonzero"/>
	<path id="star copy 4" d="M13.7959 5.89893L9.54443 9.4209L10.7952 15.1449L6.66431 11.6869L2.26733 14.9609L3.96606 9.3009L0 5.60095L5.18042 5.56091L7.1272 0L8.63037 5.63599L13.7959 5.89893Z" fill="#FFC600" fill-opacity="1.000000" fill-rule="nonzero"/>
	<path id="star copy" d="M96.1453 5.89893L91.894 9.4209L93.1448 15.1449L89.0137 11.6869L84.6167 14.9609L86.3154 9.3009L82.3494 5.60095L87.5298 5.56091L89.4766 0L90.9797 5.63599L96.1453 5.89893Z" fill="#FFC600" fill-opacity="1.000000" fill-rule="nonzero"/>
	<path id="star copy 2" d="M123.596 5.89893L119.345 9.4209L120.596 15.1449L116.465 11.6869L112.068 14.9609L113.767 9.3009L109.801 5.60095L114.981 5.56091L116.928 0L118.431 5.63599L123.596 5.89893Z" fill="#C1C8CE" fill-opacity="1.000000" fill-rule="nonzero"/>
</svg>
