<svg width="68.805908" height="78.167725" viewBox="0 0 68.8059 78.1677" fill="none" xmlns="http://www.w3.org/2000/svg" xmlns:xlink="http://www.w3.org/1999/xlink">
	<desc>
			Created with Pixso.
	</desc>
	<defs/>
	<path id="Path 1" d="M55.5088 16.5812L51.7373 21.4252C57.0833 25.5691 60.7676 31.4915 62.1218 38.1185C63.4763 44.7456 62.4111 51.6385 59.1196 57.5477C55.8279 63.4568 50.5278 67.9908 44.1804 70.3276C37.8328 72.6646 30.8579 72.6494 24.5205 70.2853C18.1831 67.921 12.9028 63.3641 9.63672 57.4409C6.37061 51.5176 5.33521 44.6201 6.71826 37.9989C8.10107 31.3778 11.811 25.4714 17.1748 21.3506C22.5388 17.2299 29.2017 15.1676 35.9556 15.5377L30.6489 21.1046L34.5852 24.8612L42.9619 16.0608L46.7148 12.1194L42.7847 8.37793L33.9907 0L30.2354 3.94128L35.9631 9.39758C27.1777 8.99756 18.5728 11.9777 11.9165 17.7256C5.26025 23.4735 1.05835 31.5527 0.174316 40.3027C-0.709717 49.0527 1.79126 57.8091 7.16333 64.7722C12.5356 71.7354 20.3706 76.3763 29.0586 77.7416C30.8513 78.0249 32.6633 78.1674 34.4785 78.1677C41.6436 78.1499 48.6245 75.896 54.4473 71.7205C60.27 67.5449 64.644 61.6561 66.9595 54.8754C69.2751 48.0947 69.4163 40.7604 67.3635 33.8955C65.3108 27.0306 61.1665 20.9778 55.5088 16.5812Z" fill="#FF6875" fill-opacity="1.000000" fill-rule="nonzero"/>
</svg>
