<svg width="20.951660" height="20.940308" viewBox="0 0 20.9517 20.9403" fill="none" xmlns="http://www.w3.org/2000/svg" xmlns:xlink="http://www.w3.org/1999/xlink">
	<desc>
			Created with Pixso.
	</desc>
	<defs/>
	<path id="search-icon" d="M20.5515 18.688L14.2434 12.351C15.3752 10.7449 15.8623 8.77228 15.6082 6.82391C15.3542 4.87561 14.3777 3.09375 12.8721 1.83142C11.3665 0.569092 9.44141 -0.081604 7.47876 0.00817871C5.51587 0.0980225 3.65869 0.921814 2.27441 2.31635C0.890381 3.71094 0.0805664 5.57452 0.00561523 7.5379C-0.0693359 9.50128 0.595947 11.4213 1.86963 12.9173C3.14331 14.4134 4.93262 15.3765 6.88281 15.6157C8.83301 15.8549 10.8018 15.3529 12.3994 14.209L18.7075 20.5471C18.8289 20.671 18.9736 20.7697 19.1333 20.8372C19.2932 20.9047 19.4648 20.9398 19.6384 20.9403C19.8118 20.9409 19.9836 20.907 20.144 20.8406C20.3042 20.7742 20.4497 20.6766 20.5718 20.5534C20.6941 20.4303 20.7905 20.2841 20.8557 20.1233C20.9209 19.9625 20.9536 19.7905 20.9517 19.6169C20.9497 19.4435 20.9133 19.2721 20.8447 19.1128C20.7759 18.9535 20.6763 18.8094 20.5515 18.689L20.5515 18.688ZM7.8623 13.046C6.82153 13.0518 5.80225 12.7484 4.93384 12.1742C4.06567 11.6001 3.38721 10.7811 2.98486 9.82098C2.58252 8.86096 2.47437 7.80298 2.67383 6.78131C2.87354 5.75964 3.37183 4.82031 4.10596 4.08215C4.83984 3.34406 5.77661 2.84045 6.79712 2.63525C7.81763 2.43005 8.87622 2.53253 9.83838 2.9295C10.8008 3.32654 11.6235 4.00031 12.2024 4.86542C12.7812 5.73059 13.0903 6.74805 13.0903 7.789C13.0903 9.17828 12.5405 10.511 11.561 11.4961C10.5813 12.4811 9.25171 13.0384 7.8623 13.046Z" fill="#22262A" fill-opacity="1.000000" fill-rule="evenodd"/>
</svg>
