<svg width="100.755859" height="65.860474" viewBox="0 0 100.756 65.8605" fill="none" xmlns="http://www.w3.org/2000/svg" xmlns:xlink="http://www.w3.org/1999/xlink">
	<desc>
			Created with Pixso.
	</desc>
	<defs/>
	<path id="shipping" d="M100.756 33.9211C100.756 33.9023 100.756 33.8834 100.756 33.8646C100.747 33.2568 100.499 32.6769 100.066 32.2509C99.6321 31.8248 99.0481 31.587 98.4402 31.5891L97.8315 31.5891L88.4202 13.4099C88.2244 13.0327 87.9282 12.7168 87.5645 12.4971C87.2007 12.2772 86.7834 12.162 86.3584 12.1641L70.3 12.1641L70.9124 7.3075C71.0127 6.37891 70.9148 5.43945 70.625 4.55151C70.3352 3.6637 69.8601 2.84741 69.2314 2.15662C68.6025 1.46594 67.8342 0.916626 66.9775 0.544922C66.1206 0.17334 65.1946 -0.012207 64.2605 0.000610352L14.4202 0.000610352C13.8113 0.00390625 13.2251 0.232544 12.7749 0.642578C12.3247 1.05261 12.0422 1.61487 11.9824 2.22083L11.4795 6.22131L39.8796 6.22131C40.3147 6.21899 40.7458 6.30444 41.147 6.47266C41.5483 6.64075 41.9114 6.88806 42.2151 7.19983C42.5186 7.51147 42.7561 7.88123 42.9133 8.28674C43.0708 8.69238 43.1448 9.12549 43.1309 9.56042C43.103 10.4521 42.7307 11.2986 42.0918 11.9213C41.4526 12.5441 40.5972 12.8948 39.7048 12.8995L30.2332 12.8995L30.2332 12.9133L2.42383 12.9133C1.79346 12.9166 1.18896 13.1639 0.737305 13.6035C0.285645 14.0431 0.0217285 14.6406 0.0012207 15.2706C-0.00878906 15.5784 0.0432129 15.8849 0.154297 16.172C0.265381 16.4592 0.43335 16.7209 0.648193 16.9417C0.862793 17.1622 1.11987 17.3374 1.40381 17.4563C1.68774 17.5753 1.99268 17.6359 2.30078 17.6342L39.124 17.6342C39.9612 17.7614 40.7227 18.191 41.2644 18.8418C41.8059 19.4926 42.0903 20.3193 42.0635 21.1656C42.0334 22.1165 41.6375 23.019 40.9583 23.6852C40.2791 24.3513 39.3689 24.7296 38.4175 24.7411L13.0359 24.7411C12.3979 24.7444 11.7861 24.9952 11.3293 25.4409C10.8728 25.8865 10.6069 26.4921 10.5881 27.1298C10.5776 27.4407 10.6301 27.7505 10.7422 28.0406C10.8542 28.3308 11.0239 28.5953 11.2407 28.8184C11.4575 29.0415 11.717 29.2184 12.0039 29.3387C12.291 29.459 12.5991 29.5201 12.9102 29.5184L37.9988 29.5184C38.844 29.6349 39.6165 30.0594 40.1677 30.7106C40.719 31.3616 41.0105 32.1934 40.9861 33.0461C40.9561 34.0016 40.5569 34.9082 39.8721 35.5752C39.1875 36.2423 38.2708 36.6178 37.3149 36.6229L8.53638 36.6229L6.11743 36.6229C5.47949 36.6262 4.86768 36.8771 4.41113 37.3228C3.95435 37.7683 3.68872 38.3738 3.66968 39.0116C3.65918 39.3225 3.71167 39.6323 3.82373 39.9225C3.93579 40.2126 4.10547 40.4772 4.32227 40.7002C4.53906 40.9233 4.79883 41.1002 5.08569 41.2206C5.37256 41.3408 5.68066 41.402 5.9917 41.4003L8.07886 41.4003L7.26294 49.9417C7.16284 50.8702 7.26099 51.8094 7.55078 52.6971C7.84058 53.585 8.31567 54.4011 8.94434 55.0917C9.57324 55.7822 10.3413 56.3314 11.1982 56.703C12.0549 57.0746 12.981 57.2601 13.9148 57.2473L15.7163 57.2473C16.1389 59.6675 17.4045 61.8599 19.2891 63.4363C21.1733 65.0128 23.5547 65.8715 26.0115 65.8604C28.5105 65.8429 30.9304 64.9833 32.8801 63.4203C34.8301 61.8574 36.1958 59.6825 36.7568 57.2473L59.2241 57.2473C61.0176 57.2313 62.7478 56.5825 64.1096 55.4155C65.3623 56.6089 67.0315 57.2661 68.7615 57.2473L69.1311 57.2473C69.5537 59.6675 70.8193 61.8599 72.7036 63.4363C74.5879 65.0128 76.9695 65.8715 79.4263 65.8604C81.925 65.8429 84.345 64.9833 86.2949 63.4203C88.2449 61.8574 89.6106 59.6825 90.1714 57.2473L91.6511 57.2473C93.5586 57.2106 95.387 56.479 96.793 55.1899C98.1992 53.9009 99.0867 52.1428 99.2888 50.246L100.742 34.1538C100.742 34.1323 100.742 34.111 100.742 34.0884C100.742 34.0658 100.748 34.0229 100.75 33.989C100.751 33.9551 100.756 33.9401 100.756 33.9211ZM26.136 61.0868C25.3594 61.0902 24.5901 60.9371 23.8738 60.6367C23.1577 60.3364 22.5093 59.8949 21.9675 59.3385C21.4255 58.7821 21.0015 58.1223 20.7202 57.3984C20.4387 56.6746 20.3062 55.9014 20.3301 55.1251C20.3816 53.5333 21.0474 52.0233 22.188 50.9119C23.3284 49.8003 24.8552 49.1737 26.4478 49.1635C27.2244 49.16 27.9937 49.3131 28.71 49.6135C29.426 49.9138 30.0745 50.3555 30.6162 50.9117C31.158 51.4681 31.5823 52.1279 31.8635 52.8518C32.1448 53.5758 32.2776 54.3489 32.2534 55.1251C32.2021 56.7169 31.5364 58.2269 30.3958 59.3385C29.2551 60.45 27.7285 61.0765 26.136 61.0868ZM79.5532 61.0868C78.7766 61.0902 78.0073 60.9371 77.291 60.6367C76.575 60.3364 75.9265 59.8949 75.3848 59.3385C74.8428 58.7821 74.4187 58.1223 74.1375 57.3984C73.856 56.6746 73.7234 55.9014 73.7473 55.1251C73.7988 53.5333 74.4646 52.0233 75.6052 50.9119C76.7456 49.8003 78.2725 49.1737 79.865 49.1635C80.6416 49.16 81.4109 49.3131 82.1272 49.6135C82.8433 49.9138 83.4917 50.3555 84.0334 50.9117C84.5752 51.4681 84.9995 52.1279 85.2808 52.8518C85.562 53.5758 85.6946 54.3489 85.6707 55.1251C85.6194 56.7169 84.9536 58.2269 83.813 59.3385C82.6724 60.45 81.1458 61.0765 79.5532 61.0868ZM94.5427 49.9366C94.4629 50.621 94.1394 51.2538 93.6318 51.7196C93.124 52.1853 92.4656 52.453 91.7769 52.4736L90.1777 52.4736C89.6499 50.1708 88.354 48.1161 86.5032 46.6476C84.6526 45.1791 82.3569 44.3842 79.9944 44.3937C77.5896 44.4104 75.2549 45.207 73.3416 46.6641C71.4282 48.1211 70.0393 50.1598 69.3838 52.4736L68.8921 52.4736C68.6074 52.4801 68.3245 52.4265 68.062 52.3162C67.7996 52.2059 67.563 52.0415 67.3684 51.8337C67.1777 51.6185 67.0344 51.3656 66.9478 51.0914C66.8611 50.8173 66.833 50.5278 66.8655 50.2422L69.8728 16.9263L76.7786 16.9263L75.6848 29.0583C75.5845 29.9869 75.6826 30.9263 75.9724 31.8142C76.2622 32.7021 76.7371 33.5184 77.366 34.2091C77.9946 34.8998 78.7629 35.4492 79.6199 35.8208C80.4766 36.1925 81.4026 36.3781 82.3367 36.3651L95.7673 36.3651L94.5427 49.9366Z" fill="#FF6875" fill-opacity="1.000000" fill-rule="nonzero"/>
</svg>
