<svg width="67.671387" height="88.838379" viewBox="0 0 67.6714 88.8384" fill="none" xmlns="http://www.w3.org/2000/svg" xmlns:xlink="http://www.w3.org/1999/xlink">
	<desc>
			Created with Pixso.
	</desc>
	<defs/>
	<path id="Path 3" d="M0 70.2733L0 88.8384L67.6677 88.8384L67.6677 70.2733C67.665 68.2035 66.8416 66.2192 65.3779 64.7557C63.9146 63.2921 61.9302 62.4688 59.8604 62.4661L7.80713 62.4661C5.73755 62.4688 3.75317 63.2921 2.28955 64.7557C0.826172 66.2192 0.00268555 68.2035 0 70.2733L0 70.2733ZM5.20483 70.2733C5.20581 69.5834 5.48022 68.922 5.96826 68.4342C6.45605 67.9464 7.11743 67.6719 7.80713 67.6709L10.4097 67.6709L10.4097 83.6373L5.20483 83.6373L5.20483 70.2733ZM15.6157 67.6709L22.3455 67.6709L33.8337 79.1592L45.322 67.6709L52.0481 67.6709L52.0481 83.6373L15.6157 83.6373L15.6157 67.6709ZM62.4629 70.2733L62.4629 83.6335L57.2581 83.6335L57.2581 67.6671L59.8604 67.6671C60.551 67.6681 61.2129 67.9431 61.7007 68.4318C62.1887 68.9204 62.4629 69.5828 62.4629 70.2733ZM37.9612 67.6709L33.8337 71.7982L29.7063 67.6709L37.9612 67.6709Z" fill="#FF6875" fill-opacity="1.000000" fill-rule="nonzero"/>
	<path id="Path 4" d="M53.3054 52.0513L57.2617 52.0513L57.2617 46.8464L59.8643 46.8464C61.9338 46.8438 63.9182 46.0204 65.3818 44.5569C66.8452 43.0933 67.6687 41.109 67.6714 39.0393L67.6714 33.8345C67.6711 24.8606 64.106 16.2545 57.7603 9.9093C51.4146 3.56421 42.8081 -0.000366211 33.8345 0C24.8606 0.000366211 16.2546 3.56543 9.90942 9.91113C3.56421 16.2568 -0.000244141 24.8632 0 33.8369L0 39.0417C0.00268555 41.1116 0.826172 43.0958 2.28955 44.5593C3.75317 46.0229 5.73755 46.8463 7.80713 46.849L11.7498 46.849C13.1973 50.9481 15.7571 54.5635 19.1431 57.29C22.5291 60.0166 26.6069 61.7468 30.9207 62.2869C35.2341 62.8269 39.6128 62.1554 43.5664 60.3477C47.5198 58.5398 50.8921 55.6671 53.3054 52.0513ZM59.8643 41.6404L57.1108 41.6404C57.2078 40.7764 57.2566 39.9075 57.2568 39.038L57.2568 33.8331C57.2566 32.9636 57.2078 32.0948 57.1108 31.2307L59.8591 31.2307C60.5491 31.2318 61.2104 31.5062 61.6982 31.9941C62.186 32.4819 62.4604 33.1433 62.4614 33.8331L62.4614 39.038C62.4619 39.7288 62.188 40.3914 61.7 40.8804C61.2119 41.3693 60.5498 41.6444 59.8591 41.6454L59.8643 41.6404ZM33.8337 5.20801C40.0916 5.21606 46.1748 7.27051 51.156 11.0582C56.1372 14.8459 59.7429 20.1589 61.4231 26.1869C60.9087 26.0822 60.3853 26.0294 59.8604 26.0298L55.9165 26.0298C54.302 21.463 51.3113 17.5092 47.3564 14.7125C43.4016 11.916 38.677 10.4143 33.8333 10.4143C28.9895 10.4143 24.2649 11.916 20.3098 14.7125C16.355 17.5092 13.3643 21.463 11.7498 26.0298L7.80713 26.0298C7.28247 26.0294 6.75879 26.0822 6.24463 26.1869C7.9248 20.1589 11.5303 14.8459 16.5115 11.0582C21.4927 7.27051 27.5762 5.21606 33.8337 5.20801ZM48.7793 23.4324C47.0967 25.8362 44.8604 27.8 42.259 29.158C39.658 30.5159 36.7681 31.2281 33.8337 31.2345L15.8018 31.2345C16.3228 27.616 17.9209 24.238 20.3879 21.5402C22.855 18.8423 26.0771 16.9493 29.6348 16.1077C33.1924 15.266 36.9209 15.5144 40.3354 16.8208C43.7498 18.1272 46.6921 20.4309 48.7793 23.4324ZM7.80713 41.6454C7.11743 41.6444 6.45605 41.3699 5.96826 40.8821C5.48022 40.3943 5.20581 39.7329 5.20483 39.043L5.20483 33.8383C5.20581 33.1483 5.48022 32.4869 5.96826 31.9991C6.45605 31.5114 7.11743 31.2368 7.80713 31.2358L10.5605 31.2358C10.4636 32.0999 10.4148 32.9688 10.4146 33.8383L10.4146 39.043C10.4148 39.9125 10.4636 40.7814 10.5605 41.6454L7.80713 41.6454ZM15.6145 39.043L15.6145 36.4406L33.8337 36.4406C37.1294 36.4344 40.3867 35.7356 43.3945 34.3893C46.4026 33.0431 49.0938 31.0795 51.2937 28.6259C51.7996 30.3167 52.0559 32.0721 52.0544 33.8369L52.0544 39.0417C52.0571 41.7428 51.4558 44.4104 50.2944 46.849L41.6411 46.849L39.3503 44.5634C37.886 46.0275 35.9001 46.85 33.8293 46.85C31.7588 46.85 29.7727 46.0275 28.3083 44.5634L24.6287 48.2432C26.8435 50.458 29.783 51.7997 32.9072 52.0219C36.0315 52.244 39.1313 51.3318 41.6372 49.4526L41.6372 52.0513L46.5654 52.0513C44.0042 54.5603 40.7593 56.2573 37.2373 56.9296C33.7153 57.6017 30.0735 57.2191 26.7681 55.8297C23.4629 54.4404 20.6411 52.1061 18.6572 49.1195C16.6733 46.1331 15.6152 42.6272 15.6157 39.0417L15.6145 39.043Z" fill="#FF6875" fill-opacity="1.000000" fill-rule="nonzero"/>
</svg>
